<svg width="128" height="128" viewBox="0 0 128 128" fill="none" xmlns="http://www.w3.org/2000/svg">
<path fill-rule="evenodd" clip-rule="evenodd" d="M74.47 75.716L45.093 40.452L7.944 85.025C5.392 78.5 4 71.424 4 64C4 31.955 29.955 6 62 6C79.5064 6 95.1952 13.7463 105.828 26H70C64.4772 26 60 30.4772 60 36V48C60 53.5228 64.4772 58 70 58H119.694C119.896 59.9723 120 61.974 120 64C120 81.719 112.054 97.582 99.526 108.225H24.474C21.197 105.412 18.21 102.251 15.6 98.8H81.836V73.686L102.745 98.8H108.4L81.807 66.9L74.47 75.716ZM45.093 18.702C49.095 18.702 52.343 21.95 52.343 25.952C52.343 29.954 49.095 33.202 45.093 33.202C41.091 33.202 37.843 29.954 37.843 25.952C37.843 21.95 41.091 18.702 45.093 18.702Z" fill="white"/>
<path d="M12.642 94.45C10.815 91.463 9.22 88.331 7.944 85.025L45.093 85.025V47.238L71.657 79.109L58.868 94.45H12.642Z" fill="white"/>
<path d="M62 122C50.313 122 39.409 118.52 30.303 112.575H93.697C84.591 118.52 73.687 122 62 122Z" fill="white"/>
<path d="M85.7411 45.983H84.386V38.9261H85.6388C86.3207 38.9261 86.896 39.0305 87.3647 39.2393C87.8377 39.4482 88.1957 39.8082 88.4386 40.3196C88.6857 40.831 88.8093 41.5426 88.8093 42.4546C88.8093 43.3665 88.6879 44.0781 88.445 44.5895C88.2063 45.1009 87.8569 45.4609 87.3967 45.6698C86.9407 45.8786 86.3888 45.983 85.7411 45.983Z" fill="white"/>
<path fill-rule="evenodd" clip-rule="evenodd" d="M71 29C66.5817 29 63 32.5817 63 37V47C63 51.4183 66.5817 55 71 55H119C123.418 55 127 51.4183 127 47V37C127 32.5817 123.418 29 119 29H71ZM75.4212 39.0028C75.7067 39.2415 75.8665 39.5739 75.9006 40H79.3011C79.2969 39.1435 79.0838 38.3956 78.6619 37.7564C78.2443 37.1129 77.6499 36.6144 76.8785 36.2607C76.1072 35.907 75.1932 35.7301 74.1364 35.7301C73.1008 35.7301 72.1825 35.9048 71.3814 36.2543C70.5845 36.6037 69.9602 37.0916 69.5085 37.718C69.0611 38.3402 68.8395 39.0668 68.8438 39.8977C68.8395 40.9205 69.1697 41.728 69.8345 42.3203C70.5035 42.9084 71.4176 43.3281 72.5767 43.5796L73.8807 43.8608C74.3665 43.9673 74.7521 44.0824 75.0376 44.206C75.3232 44.3253 75.5277 44.4617 75.6513 44.6151C75.7791 44.7642 75.8452 44.9389 75.8494 45.1392C75.8452 45.3523 75.777 45.5419 75.6449 45.7081C75.5128 45.8743 75.3189 46.0043 75.0632 46.098C74.8075 46.1918 74.4901 46.2386 74.1108 46.2386C73.6591 46.2386 73.2692 46.1683 72.941 46.0277C72.6172 45.8871 72.3658 45.6804 72.1868 45.4077C72.0078 45.1349 71.9077 44.7983 71.8864 44.3977H68.5114C68.5156 45.4929 68.75 46.392 69.2145 47.0952C69.6832 47.794 70.3395 48.3118 71.1832 48.6484C72.0312 48.9851 73.0241 49.1534 74.1619 49.1534C75.2699 49.1534 76.218 48.9979 77.0064 48.6868C77.799 48.3757 78.4084 47.9219 78.8345 47.3253C79.2606 46.7287 79.4758 46 79.4801 45.1392C79.4758 44.6406 79.3949 44.1804 79.2372 43.7585C79.0838 43.3367 78.843 42.9574 78.5149 42.6207C78.1868 42.2798 77.7649 41.9837 77.2493 41.7323C76.7337 41.4808 76.1136 41.2784 75.3892 41.125L74.3153 40.8949C74.0043 40.831 73.7358 40.7585 73.5099 40.6776C73.2841 40.5966 73.0987 40.5071 72.9538 40.4091C72.8089 40.3068 72.7024 40.1939 72.6342 40.0703C72.5703 39.9425 72.5426 39.7997 72.5511 39.6421C72.5554 39.4503 72.6129 39.2798 72.7237 39.1307C72.8345 38.9815 73.005 38.8643 73.2351 38.7791C73.4695 38.6896 73.7699 38.6449 74.1364 38.6449C74.7116 38.6449 75.1399 38.7642 75.4212 39.0028ZM80.832 49H85.869C87.1985 49 88.3512 48.7401 89.3271 48.2202C90.3029 47.696 91.0572 46.946 91.5898 45.9702C92.1225 44.9901 92.3888 43.8182 92.3888 42.4546C92.3888 41.0909 92.1204 39.9212 91.5835 38.9453C91.0508 37.9652 90.2923 37.2152 89.3079 36.6953C88.3278 36.1712 87.1644 35.9091 85.8178 35.9091H80.832V49ZM94.0332 35.9091H97.5872V41.2017H97.7662L101.704 35.9091H105.846L101.422 41.7386L105.948 49H101.704L98.7633 44.0909L97.5872 45.625V49H94.0332V35.9091ZM116.239 38.8239L111.1 49H114.756L119.921 38.7472V35.9091H110.205V38.7472H116.239V38.8239Z" fill="white"/>
</svg>
